<mxfile host="app.diagrams.net" agent="Mozilla/5.0 (X11; Linux x86_64; rv:109.0) Gecko/20100101 Firefox/115.0" version="24.7.5">
  <diagram name="Page-1" id="gYQEroG_VFHlmWOVAgRq">
    <mxGraphModel dx="1120" dy="1578" grid="1" gridSize="10" guides="1" tooltips="1" connect="1" arrows="1" fold="1" page="1" pageScale="1" pageWidth="850" pageHeight="1100" math="0" shadow="0">
      <root>
        <mxCell id="0" />
        <mxCell id="1" parent="0" />
        <mxCell id="eWt_t2TDz5AZrF_Axa6a-1" value="BusinessOwner" style="shape=umlActor;verticalLabelPosition=bottom;verticalAlign=top;html=1;outlineConnect=0;" vertex="1" parent="1">
          <mxGeometry x="30" y="200" width="50" height="90" as="geometry" />
        </mxCell>
        <mxCell id="eWt_t2TDz5AZrF_Axa6a-2" value="" style="swimlane;startSize=0;" vertex="1" parent="1">
          <mxGeometry x="190" width="520" height="940" as="geometry" />
        </mxCell>
        <mxCell id="eWt_t2TDz5AZrF_Axa6a-3" value="S&#39;authentifier" style="ellipse;whiteSpace=wrap;html=1;" vertex="1" parent="eWt_t2TDz5AZrF_Axa6a-2">
          <mxGeometry x="370" y="140" width="140" height="70" as="geometry" />
        </mxCell>
        <mxCell id="eWt_t2TDz5AZrF_Axa6a-4" value="&amp;lt;&amp;lt;include&amp;gt;&amp;gt;" style="endArrow=open;endSize=12;dashed=1;html=1;rounded=0;exitX=1;exitY=0.5;exitDx=0;exitDy=0;" edge="1" parent="eWt_t2TDz5AZrF_Axa6a-2" source="eWt_t2TDz5AZrF_Axa6a-13" target="eWt_t2TDz5AZrF_Axa6a-3">
          <mxGeometry width="160" relative="1" as="geometry">
            <mxPoint x="235" y="71.89" as="sourcePoint" />
            <mxPoint x="454.57758505560196" y="178.11254095269726" as="targetPoint" />
          </mxGeometry>
        </mxCell>
        <mxCell id="eWt_t2TDz5AZrF_Axa6a-5" value="&amp;lt;&amp;lt;include&amp;gt;&amp;gt;" style="endArrow=open;endSize=12;dashed=1;html=1;rounded=0;exitX=0.954;exitY=0.374;exitDx=0;exitDy=0;exitPerimeter=0;" edge="1" parent="eWt_t2TDz5AZrF_Axa6a-2" source="eWt_t2TDz5AZrF_Axa6a-12" target="eWt_t2TDz5AZrF_Axa6a-3">
          <mxGeometry width="160" relative="1" as="geometry">
            <mxPoint x="170" y="133.5" as="sourcePoint" />
            <mxPoint x="390" y="240" as="targetPoint" />
          </mxGeometry>
        </mxCell>
        <mxCell id="eWt_t2TDz5AZrF_Axa6a-6" value="&amp;lt;&amp;lt;include&amp;gt;&amp;gt;" style="endArrow=open;endSize=12;dashed=1;html=1;rounded=0;exitX=0.968;exitY=0.289;exitDx=0;exitDy=0;exitPerimeter=0;" edge="1" parent="eWt_t2TDz5AZrF_Axa6a-2" source="eWt_t2TDz5AZrF_Axa6a-11" target="eWt_t2TDz5AZrF_Axa6a-3">
          <mxGeometry width="160" relative="1" as="geometry">
            <mxPoint x="190" y="350" as="sourcePoint" />
            <mxPoint x="390" y="466.5" as="targetPoint" />
          </mxGeometry>
        </mxCell>
        <mxCell id="eWt_t2TDz5AZrF_Axa6a-7" value="Ajouter son produit" style="ellipse;whiteSpace=wrap;html=1;" vertex="1" parent="eWt_t2TDz5AZrF_Axa6a-2">
          <mxGeometry x="70.5" y="120" width="140" height="70" as="geometry" />
        </mxCell>
        <mxCell id="eWt_t2TDz5AZrF_Axa6a-8" value="Modifier son produit" style="ellipse;whiteSpace=wrap;html=1;" vertex="1" parent="eWt_t2TDz5AZrF_Axa6a-2">
          <mxGeometry x="70.5" y="200" width="140" height="70" as="geometry" />
        </mxCell>
        <mxCell id="eWt_t2TDz5AZrF_Axa6a-9" value="CrÃ©er un compte" style="ellipse;whiteSpace=wrap;html=1;" vertex="1" parent="eWt_t2TDz5AZrF_Axa6a-2">
          <mxGeometry x="70.5" y="40" width="140" height="70" as="geometry" />
        </mxCell>
        <mxCell id="eWt_t2TDz5AZrF_Axa6a-10" value="&lt;div&gt;Supprimer son produit&lt;/div&gt;" style="ellipse;whiteSpace=wrap;html=1;" vertex="1" parent="eWt_t2TDz5AZrF_Axa6a-2">
          <mxGeometry x="70.5" y="278.45" width="140" height="70" as="geometry" />
        </mxCell>
        <mxCell id="eWt_t2TDz5AZrF_Axa6a-11" value="Ajouter&amp;nbsp;son service" style="ellipse;whiteSpace=wrap;html=1;" vertex="1" parent="eWt_t2TDz5AZrF_Axa6a-2">
          <mxGeometry x="70.5" y="357.79999999999995" width="140" height="70" as="geometry" />
        </mxCell>
        <mxCell id="eWt_t2TDz5AZrF_Axa6a-12" value="Modifier son service" style="ellipse;whiteSpace=wrap;html=1;" vertex="1" parent="eWt_t2TDz5AZrF_Axa6a-2">
          <mxGeometry x="70.5" y="437.79999999999995" width="140" height="70" as="geometry" />
        </mxCell>
        <mxCell id="eWt_t2TDz5AZrF_Axa6a-13" value="Supprimer son service" style="ellipse;whiteSpace=wrap;html=1;" vertex="1" parent="eWt_t2TDz5AZrF_Axa6a-2">
          <mxGeometry x="70.5" y="517.8" width="140" height="70" as="geometry" />
        </mxCell>
        <mxCell id="eWt_t2TDz5AZrF_Axa6a-14" value="Consulter ses produits" style="ellipse;whiteSpace=wrap;html=1;" vertex="1" parent="eWt_t2TDz5AZrF_Axa6a-2">
          <mxGeometry x="70.5" y="597.8" width="140" height="70" as="geometry" />
        </mxCell>
        <mxCell id="eWt_t2TDz5AZrF_Axa6a-15" value="Contacter l&#39;admin" style="ellipse;whiteSpace=wrap;html=1;" vertex="1" parent="eWt_t2TDz5AZrF_Axa6a-2">
          <mxGeometry x="70.5" y="677.8" width="140" height="70" as="geometry" />
        </mxCell>
        <mxCell id="eWt_t2TDz5AZrF_Axa6a-16" value="" style="endArrow=none;html=1;rounded=0;entryX=0;entryY=0.5;entryDx=0;entryDy=0;" edge="1" parent="eWt_t2TDz5AZrF_Axa6a-2">
          <mxGeometry relative="1" as="geometry">
            <mxPoint x="-70" y="310" as="sourcePoint" />
            <mxPoint x="70.5" y="632.8000000000002" as="targetPoint" />
          </mxGeometry>
        </mxCell>
        <mxCell id="eWt_t2TDz5AZrF_Axa6a-17" value="" style="endArrow=none;html=1;rounded=0;entryX=0;entryY=0.5;entryDx=0;entryDy=0;" edge="1" parent="eWt_t2TDz5AZrF_Axa6a-2">
          <mxGeometry relative="1" as="geometry">
            <mxPoint x="-70" y="330" as="sourcePoint" />
            <mxPoint x="70.5" y="712.8000000000002" as="targetPoint" />
          </mxGeometry>
        </mxCell>
        <mxCell id="eWt_t2TDz5AZrF_Axa6a-18" value="" style="endArrow=none;html=1;rounded=0;entryX=0;entryY=0.5;entryDx=0;entryDy=0;" edge="1" parent="eWt_t2TDz5AZrF_Axa6a-2">
          <mxGeometry relative="1" as="geometry">
            <mxPoint x="-74" y="270" as="sourcePoint" />
            <mxPoint x="70.5" y="472.79999999999995" as="targetPoint" />
          </mxGeometry>
        </mxCell>
        <mxCell id="eWt_t2TDz5AZrF_Axa6a-19" value="" style="endArrow=none;html=1;rounded=0;entryX=0;entryY=0.5;entryDx=0;entryDy=0;" edge="1" parent="eWt_t2TDz5AZrF_Axa6a-2">
          <mxGeometry relative="1" as="geometry">
            <mxPoint x="-70" y="290" as="sourcePoint" />
            <mxPoint x="70.5" y="552.8" as="targetPoint" />
          </mxGeometry>
        </mxCell>
        <mxCell id="eWt_t2TDz5AZrF_Axa6a-20" value="" style="endArrow=none;html=1;rounded=0;" edge="1" parent="eWt_t2TDz5AZrF_Axa6a-2">
          <mxGeometry relative="1" as="geometry">
            <mxPoint x="-70" y="260" as="sourcePoint" />
            <mxPoint x="70.69303309256259" y="390.8525314639094" as="targetPoint" />
          </mxGeometry>
        </mxCell>
        <mxCell id="eWt_t2TDz5AZrF_Axa6a-21" value="" style="endArrow=none;html=1;rounded=0;" edge="1" parent="eWt_t2TDz5AZrF_Axa6a-2" target="eWt_t2TDz5AZrF_Axa6a-10">
          <mxGeometry relative="1" as="geometry">
            <mxPoint x="-70" y="250" as="sourcePoint" />
            <mxPoint x="78.81878123554907" y="329.998619668511" as="targetPoint" />
          </mxGeometry>
        </mxCell>
        <mxCell id="eWt_t2TDz5AZrF_Axa6a-22" value="" style="endArrow=none;html=1;rounded=0;" edge="1" parent="eWt_t2TDz5AZrF_Axa6a-2" target="eWt_t2TDz5AZrF_Axa6a-9">
          <mxGeometry relative="1" as="geometry">
            <mxPoint x="-70" y="200" as="sourcePoint" />
            <mxPoint x="63.31878123554907" y="135.77861966851103" as="targetPoint" />
          </mxGeometry>
        </mxCell>
        <mxCell id="eWt_t2TDz5AZrF_Axa6a-23" value="Supprimer&amp;nbsp;son compte" style="ellipse;whiteSpace=wrap;html=1;" vertex="1" parent="eWt_t2TDz5AZrF_Axa6a-2">
          <mxGeometry x="70" y="760" width="140" height="70" as="geometry" />
        </mxCell>
        <mxCell id="eWt_t2TDz5AZrF_Axa6a-24" value="&amp;lt;&amp;lt;include&amp;gt;&amp;gt;" style="endArrow=open;endSize=12;dashed=1;html=1;rounded=0;exitX=1;exitY=0.4;exitDx=0;exitDy=0;exitPerimeter=0;entryX=0.643;entryY=0.957;entryDx=0;entryDy=0;entryPerimeter=0;" edge="1" parent="eWt_t2TDz5AZrF_Axa6a-2" source="eWt_t2TDz5AZrF_Axa6a-23" target="eWt_t2TDz5AZrF_Axa6a-3">
          <mxGeometry width="160" relative="1" as="geometry">
            <mxPoint x="170" y="522" as="sourcePoint" />
            <mxPoint x="384" y="290" as="targetPoint" />
          </mxGeometry>
        </mxCell>
        <mxCell id="eWt_t2TDz5AZrF_Axa6a-25" value="&amp;lt;&amp;lt;include&amp;gt;&amp;gt;" style="endArrow=open;endSize=12;dashed=1;html=1;rounded=0;entryX=0;entryY=1;entryDx=0;entryDy=0;" edge="1" parent="eWt_t2TDz5AZrF_Axa6a-2" source="eWt_t2TDz5AZrF_Axa6a-10" target="eWt_t2TDz5AZrF_Axa6a-3">
          <mxGeometry width="160" relative="1" as="geometry">
            <mxPoint x="216" y="388" as="sourcePoint" />
            <mxPoint x="415" y="215" as="targetPoint" />
          </mxGeometry>
        </mxCell>
        <mxCell id="eWt_t2TDz5AZrF_Axa6a-26" value="&amp;lt;&amp;lt;include&amp;gt;&amp;gt;" style="endArrow=open;endSize=12;dashed=1;html=1;rounded=0;exitX=0.996;exitY=0.286;exitDx=0;exitDy=0;exitPerimeter=0;" edge="1" parent="eWt_t2TDz5AZrF_Axa6a-2" source="eWt_t2TDz5AZrF_Axa6a-8" target="eWt_t2TDz5AZrF_Axa6a-3">
          <mxGeometry width="160" relative="1" as="geometry">
            <mxPoint x="220" y="220" as="sourcePoint" />
            <mxPoint x="389" y="140" as="targetPoint" />
          </mxGeometry>
        </mxCell>
        <mxCell id="eWt_t2TDz5AZrF_Axa6a-27" value="&amp;lt;&amp;lt;include&amp;gt;&amp;gt;" style="endArrow=open;endSize=12;dashed=1;html=1;rounded=0;" edge="1" parent="eWt_t2TDz5AZrF_Axa6a-2" source="eWt_t2TDz5AZrF_Axa6a-7" target="eWt_t2TDz5AZrF_Axa6a-3">
          <mxGeometry width="160" relative="1" as="geometry">
            <mxPoint x="250" y="172" as="sourcePoint" />
            <mxPoint x="415" y="140" as="targetPoint" />
          </mxGeometry>
        </mxCell>
        <mxCell id="eWt_t2TDz5AZrF_Axa6a-28" value="&lt;b&gt;&lt;font style=&quot;font-size: 15px;&quot; color=&quot;#1a5fb4&quot;&gt;Use Case BusinessOwner Annuaire digitale d&#39;entreprises&lt;/font&gt;&lt;/b&gt;" style="text;html=1;align=center;verticalAlign=middle;resizable=0;points=[];autosize=1;strokeColor=none;fillColor=none;" vertex="1" parent="1">
          <mxGeometry x="230" y="-40" width="430" height="30" as="geometry" />
        </mxCell>
        <mxCell id="eWt_t2TDz5AZrF_Axa6a-29" value="" style="endArrow=none;html=1;rounded=0;entryX=0;entryY=0.5;entryDx=0;entryDy=0;" edge="1" parent="1" target="eWt_t2TDz5AZrF_Axa6a-23">
          <mxGeometry relative="1" as="geometry">
            <mxPoint x="120" y="350" as="sourcePoint" />
            <mxPoint x="260.5" y="801.55" as="targetPoint" />
          </mxGeometry>
        </mxCell>
        <mxCell id="eWt_t2TDz5AZrF_Axa6a-30" value="" style="endArrow=none;html=1;rounded=0;" edge="1" parent="1" target="eWt_t2TDz5AZrF_Axa6a-7">
          <mxGeometry relative="1" as="geometry">
            <mxPoint x="120" y="220" as="sourcePoint" />
            <mxPoint x="288" y="108" as="targetPoint" />
          </mxGeometry>
        </mxCell>
        <mxCell id="eWt_t2TDz5AZrF_Axa6a-31" value="" style="endArrow=none;html=1;rounded=0;" edge="1" parent="1" target="eWt_t2TDz5AZrF_Axa6a-8">
          <mxGeometry relative="1" as="geometry">
            <mxPoint x="120" y="235" as="sourcePoint" />
            <mxPoint x="278" y="181" as="targetPoint" />
          </mxGeometry>
        </mxCell>
        <mxCell id="eWt_t2TDz5AZrF_Axa6a-32" value="&amp;lt;&amp;lt;include&amp;gt;&amp;gt;" style="endArrow=open;endSize=12;dashed=1;html=1;rounded=0;exitX=1;exitY=0.5;exitDx=0;exitDy=0;" edge="1" parent="1" source="eWt_t2TDz5AZrF_Axa6a-14">
          <mxGeometry width="160" relative="1" as="geometry">
            <mxPoint x="411" y="563" as="sourcePoint" />
            <mxPoint x="620" y="218" as="targetPoint" />
          </mxGeometry>
        </mxCell>
        <mxCell id="eWt_t2TDz5AZrF_Axa6a-33" value="Manager son profil" style="ellipse;whiteSpace=wrap;html=1;" vertex="1" parent="1">
          <mxGeometry x="260" y="840" width="140" height="70" as="geometry" />
        </mxCell>
        <mxCell id="eWt_t2TDz5AZrF_Axa6a-34" value="" style="endArrow=none;html=1;rounded=0;entryX=0;entryY=0.5;entryDx=0;entryDy=0;" edge="1" parent="1" target="eWt_t2TDz5AZrF_Axa6a-33">
          <mxGeometry relative="1" as="geometry">
            <mxPoint x="120" y="370" as="sourcePoint" />
            <mxPoint x="270" y="805" as="targetPoint" />
          </mxGeometry>
        </mxCell>
      </root>
    </mxGraphModel>
  </diagram>
</mxfile>
